<?xml version="1.0" encoding="utf-8"?>
<svg version="1.1" xmlns:xlink="http://www.w3.org/1999/xlink" width="140px" height="40px" xmlns="http://www.w3.org/2000/svg">
  <defs>
    <linearGradient gradientUnits="userSpaceOnUse" x1="700" y1="580" x2="700" y2="620" id="LinearGradient151">
      <stop id="Stop152" stop-color="#02a7f0" offset="0" />
      <stop id="Stop153" stop-color="#c280ff" offset="1" />
    </linearGradient>
  </defs>
  <g transform="matrix(1 0 0 1 -630 -580 )">
    <path d="M 630.5 585  A 4.5 4.5 0 0 1 635 580.5 L 765 580.5  A 4.5 4.5 0 0 1 769.5 585 L 769.5 615  A 4.5 4.5 0 0 1 765 619.5 L 635 619.5  A 4.5 4.5 0 0 1 630.5 615 L 630.5 585  Z " fill-rule="nonzero" fill="url(#LinearGradient151)" stroke="none" />
    <path d="M 630.5 585  A 4.5 4.5 0 0 1 635 580.5 L 765 580.5  A 4.5 4.5 0 0 1 769.5 585 L 769.5 615  A 4.5 4.5 0 0 1 765 619.5 L 635 619.5  A 4.5 4.5 0 0 1 630.5 615 L 630.5 585  Z " stroke-width="1" stroke="#797979" fill="none" />
  </g>
</svg>