<?xml version="1.0" encoding="utf-8"?>
<svg version="1.1" xmlns:xlink="http://www.w3.org/1999/xlink" width="164px" height="40px" xmlns="http://www.w3.org/2000/svg">
  <defs>
    <radialGradient cx="1398" cy="426" r="82" gradientTransform="matrix(-1 0 -0 -0.24390243902439024 2796 529.9024390243902 )" gradientUnits="userSpaceOnUse" id="RadialGradient163">
      <stop id="Stop164" stop-color="#81d3f8" offset="0" />
      <stop id="Stop165" stop-color="#f59a23" stop-opacity="0.8509803921568627" offset="0.96" />
    </radialGradient>
  </defs>
  <g transform="matrix(1 0 0 1 -1316 -406 )">
    <path d="M 1316.5 411  A 4.5 4.5 0 0 1 1321 406.5 L 1475 406.5  A 4.5 4.5 0 0 1 1479.5 411 L 1479.5 441  A 4.5 4.5 0 0 1 1475 445.5 L 1321 445.5  A 4.5 4.5 0 0 1 1316.5 441 L 1316.5 411  Z " fill-rule="nonzero" fill="url(#RadialGradient163)" stroke="none" />
    <path d="M 1316.5 411  A 4.5 4.5 0 0 1 1321 406.5 L 1475 406.5  A 4.5 4.5 0 0 1 1479.5 411 L 1479.5 441  A 4.5 4.5 0 0 1 1475 445.5 L 1321 445.5  A 4.5 4.5 0 0 1 1316.5 441 L 1316.5 411  Z " stroke-width="1" stroke="#797979" fill="none" />
  </g>
</svg>