<?xml version="1.0" encoding="utf-8"?>
<svg version="1.1" xmlns:xlink="http://www.w3.org/1999/xlink" width="30px" height="40px" xmlns="http://www.w3.org/2000/svg">
  <g transform="matrix(1 0 0 1 -1584 -55 )">
    <path d="M 28.359375 12.181818181818183  C 29.453125 13.030303030303028  30 14.060606060606059  30 15.272727272727273  L 30 24.727272727272727  C 30 25.333333333333332  29.726562500000004 25.84848484848485  29.1796875 26.27272727272727  C 28.6328125 26.696969696969695  27.968750000000004 26.90909090909091  27.1875 26.90909090909091  C 26.406250000000004 26.90909090909091  25.742187500000004 26.696969696969695  25.1953125 26.27272727272727  C 24.6484375 25.84848484848485  24.375 25.333333333333332  24.375 24.727272727272727  L 24.375 16.727272727272727  L 22 16.727272727272727  L 22 37.45454545454545  C 22.5 38.151515151515156  22.177734375 38.75  21.533203125 39.25  C 20.888671875 39.75  20.117187500000004 40  19.21875 40  C 18.3203125 40  17.548828125 39.75  16.904296875 39.25  C 16.259765625 38.75  15.9375 38.151515151515156  16 37.45454545454545  L 16 26.90909090909091  L 14 26.90909090909091  L 14 37.45454545454545  C 14.062500000000002 38.151515151515156  13.740234375000002 38.75  13.095703125 39.25  C 12.451171875000002 39.75  11.679687500000002 40  10.78125 40  C 9.882812500000002 40  9.111328125 39.75  8.466796875 39.25  C 7.822265625 38.75  7.5 38.151515151515156  8 37.45454545454545  L 8 16.727272727272727  L 5.625 16.727272727272727  L 5.625 24.727272727272727  C 5.625 25.333333333333332  5.3515625 25.84848484848485  4.8046875 26.27272727272727  C 4.2578125 26.696969696969695  3.59375 26.90909090909091  2.8125 26.90909090909091  C 2.0312500000000004 26.90909090909091  1.3671875000000002 26.696969696969695  0.8203125 26.27272727272727  C 0.27343749999999994 25.84848484848485  0 25.333333333333332  0 24.727272727272727  L 0 15.272727272727273  C 0 14.060606060606059  0.5468749999999999 13.030303030303028  1.640625 12.181818181818183  C 2.7343750000000004 11.333333333333329  4.062500000000001 10.909090909090908  5.625 11  L 24.375 11  C 25.937500000000004 10.909090909090908  27.265625000000004 11.333333333333329  28.359375 12.181818181818183  Z M 19.6435546875 1.4886363636363642  C 20.922851562500004 2.481060606060601  21.5625 3.6818181818181817  21.5625 5.090909090909093  C 21.5625 6.499999999999999  20.922851562500004 7.700757575757575  19.6435546875 8.693181818181817  C 18.3642578125 9.685606060606059  16.81640625 10.18181818181818  15 10.18181818181818  C 13.18359375 10.18181818181818  11.6357421875 9.685606060606059  10.3564453125 8.693181818181817  C 9.077148437500002 7.700757575757575  8.4375 6.499999999999999  8.4375 5.090909090909093  C 8.4375 3.6818181818181817  9.077148437500002 2.481060606060601  10.3564453125 1.4886363636363642  C 11.6357421875 0.49621212121211844  13.18359375 0  15 0  C 16.81640625 0  18.3642578125 0.49621212121211844  19.6435546875 1.4886363636363642  Z " fill-rule="nonzero" fill="#ffffff" stroke="none" transform="matrix(1 0 0 1 1584 55 )" />
  </g>
</svg>