<?xml version="1.0" encoding="utf-8"?>
<svg version="1.1" xmlns:xlink="http://www.w3.org/1999/xlink" width="184px" height="55px" xmlns="http://www.w3.org/2000/svg">
  <defs>
    <radialGradient cx="1496" cy="647.5" r="92" gradientTransform="matrix(-1 0 -0 -0.29891304347826086 2992 841.0461956521739 )" gradientUnits="userSpaceOnUse" id="RadialGradient172">
      <stop id="Stop173" stop-color="#81d3f8" offset="0" />
      <stop id="Stop174" stop-color="#f59a23" stop-opacity="0.8509803921568627" offset="0.96" />
    </radialGradient>
  </defs>
  <g transform="matrix(1 0 0 1 -1404 -620 )">
    <path d="M 1404.5 625  A 4.5 4.5 0 0 1 1409 620.5 L 1583 620.5  A 4.5 4.5 0 0 1 1587.5 625 L 1587.5 670  A 4.5 4.5 0 0 1 1583 674.5 L 1409 674.5  A 4.5 4.5 0 0 1 1404.5 670 L 1404.5 625  Z " fill-rule="nonzero" fill="url(#RadialGradient172)" stroke="none" />
    <path d="M 1404.5 625  A 4.5 4.5 0 0 1 1409 620.5 L 1583 620.5  A 4.5 4.5 0 0 1 1587.5 625 L 1587.5 670  A 4.5 4.5 0 0 1 1583 674.5 L 1409 674.5  A 4.5 4.5 0 0 1 1404.5 670 L 1404.5 625  Z " stroke-width="1" stroke="#797979" fill="none" />
  </g>
</svg>