<?xml version="1.0" encoding="utf-8"?>
<svg version="1.1" xmlns:xlink="http://www.w3.org/1999/xlink" width="164px" height="40px" xmlns="http://www.w3.org/2000/svg">
  <defs>
    <linearGradient gradientUnits="userSpaceOnUse" x1="1398" y1="406" x2="1398" y2="446" id="LinearGradient160">
      <stop id="Stop161" stop-color="#02a7f0" offset="0" />
      <stop id="Stop162" stop-color="#c280ff" offset="1" />
    </linearGradient>
  </defs>
  <g transform="matrix(1 0 0 1 -1316 -406 )">
    <path d="M 1316.5 411  A 4.5 4.5 0 0 1 1321 406.5 L 1475 406.5  A 4.5 4.5 0 0 1 1479.5 411 L 1479.5 441  A 4.5 4.5 0 0 1 1475 445.5 L 1321 445.5  A 4.5 4.5 0 0 1 1316.5 441 L 1316.5 411  Z " fill-rule="nonzero" fill="url(#LinearGradient160)" stroke="none" />
    <path d="M 1316.5 411  A 4.5 4.5 0 0 1 1321 406.5 L 1475 406.5  A 4.5 4.5 0 0 1 1479.5 411 L 1479.5 441  A 4.5 4.5 0 0 1 1475 445.5 L 1321 445.5  A 4.5 4.5 0 0 1 1316.5 441 L 1316.5 411  Z " stroke-width="1" stroke="#797979" fill="none" />
  </g>
</svg>