<?xml version="1.0" encoding="utf-8"?>
<svg version="1.1" xmlns:xlink="http://www.w3.org/1999/xlink" width="23px" height="20px" xmlns="http://www.w3.org/2000/svg">
  <g transform="matrix(1 0 0 1 -41 -165 )">
    <path d="M 22.715494791666668 16.296875  C 22.905164930555554 16.494791666666668  23 16.729166666666668  23 17  L 23 19  C 23 19.270833333333332  22.905164930555554 19.505208333333332  22.715494791666668 19.703125  C 22.525824652777782 19.901041666666668  22.301215277777782 20  22.041666666666668 20  L 0.9583333333333333 20  C 0.6987847222222223 20  0.4741753472222222 19.901041666666668  0.2845052083333333 19.703125  C 0.09483506944444445 19.505208333333332  0 19.270833333333332  0 19  L 0 17  C 0 16.729166666666668  0.09483506944444445 16.494791666666668  0.2845052083333333 16.296875  C 0.4741753472222222 16.098958333333332  0.6987847222222223 16  0.9583333333333333 16  L 22.041666666666668 16  C 22.301215277777782 16  22.525824652777782 16.098958333333332  22.715494791666668 16.296875  Z M 22.715494791666668 8.296875  C 22.905164930555554 8.494791666666666  23 8.729166666666666  23 9  L 23 11  C 23 11.270833333333332  22.905164930555554 11.505208333333332  22.715494791666668 11.703125  C 22.525824652777782 11.901041666666664  22.301215277777782 12  22.041666666666668 12  L 0.9583333333333333 12  C 0.6987847222222223 12  0.4741753472222222 11.901041666666664  0.2845052083333333 11.703125  C 0.09483506944444445 11.505208333333332  0 11.270833333333332  0 11  L 0 9  C 0 8.729166666666666  0.09483506944444445 8.494791666666666  0.2845052083333333 8.296875  C 0.4741753472222222 8.098958333333336  0.6987847222222223 8  0.9583333333333333 8  L 22.041666666666668 8  C 22.301215277777782 8  22.525824652777782 8.098958333333336  22.715494791666668 8.296875  Z M 22.715494791666668 0.2968750000000009  C 22.905164930555554 0.4947916666666652  23 0.7291666666666652  23 1.0000000000000009  L 23 3.0000000000000004  C 23 3.2708333333333317  22.905164930555554 3.5052083333333317  22.715494791666668 3.7031250000000004  C 22.525824652777782 3.9010416666666647  22.301215277777782 3.999999999999999  22.041666666666668 4  L 0.9583333333333333 4  C 0.6987847222222223 3.999999999999999  0.4741753472222222 3.9010416666666647  0.2845052083333333 3.7031250000000004  C 0.09483506944444445 3.5052083333333317  0 3.2708333333333317  0 3.0000000000000004  L 0 1.0000000000000009  C 0 0.7291666666666652  0.09483506944444445 0.4947916666666652  0.2845052083333333 0.2968750000000009  C 0.4741753472222222 0.09895833333333215  0.6987847222222223 0  0.9583333333333333 0  L 22.041666666666668 0  C 22.301215277777782 0  22.525824652777782 0.09895833333333215  22.715494791666668 0.2968750000000009  Z " fill-rule="nonzero" fill="#ffffff" stroke="none" transform="matrix(1 0 0 1 41 165 )" />
  </g>
</svg>