<?xml version="1.0" encoding="utf-8"?>
<svg version="1.1" xmlns:xlink="http://www.w3.org/1999/xlink" width="30px" height="30px" xmlns="http://www.w3.org/2000/svg">
  <g transform="matrix(1 0 0 1 -1584 -60 )">
    <path d="M 23.42075892857143 17.675781249999996  C 23.521205357142858 17.792968749999996  23.57142857142857 17.94270833333333  23.57142857142857 18.125000000000004  L 23.57142857142857 24.375  C 23.57142857142857 25.924479166666664  23.099888392857146 27.249348958333336  22.15680803571429 28.349609375  C 21.21372767857143 29.449869791666664  20.078125 30  18.75 30  L 4.821428571428572 30  C 3.493303571428572 30  2.3577008928571432 29.449869791666664  1.4146205357142856 28.349609375  C 0.47154017857142855 27.249348958333336  0 25.924479166666664  0 24.375  L 0 8.125000000000002  C 0 6.57552083333333  0.47154017857142855 5.250651041666665  1.4146205357142856 4.150390624999999  C 2.3577008928571432 3.0501302083333295  3.493303571428572 2.500000000000001  4.821428571428572 3  L 16.607142857142858 3  C 16.763392857142858 2.500000000000001  16.89174107142857 2.558593750000001  16.9921875 2.675781250000001  C 17.09263392857143 2.792968750000001  17.142857142857142 2.9427083333333304  17.142857142857142 3.124999999999999  L 17.142857142857142 4.375000000000001  C 17.142857142857142 4.557291666666666  17.09263392857143 4.707031249999999  16.9921875 4.824218749999999  C 16.89174107142857 4.941406249999999  16.763392857142858 4.999999999999999  16.607142857142858 5  L 4.821428571428572 5  C 4.084821428571429 4.999999999999999  3.454241071428572 5.3059895833333295  2.9296875 5.91796875  C 2.405133928571429 6.529947916666664  2.142857142857143 7.265625  2.142857142857143 8.125000000000002  L 2.142857142857143 24.375  C 2.142857142857143 25.234375  2.405133928571429 25.97005208333333  2.9296875 26.58203125  C 3.454241071428572 27.194010416666664  4.084821428571429 27.5  4.821428571428572 27  L 18.75 27  C 19.486607142857142 27.5  20.117187500000004 27.194010416666664  20.64174107142857 26.58203125  C 21.166294642857146 25.97005208333333  21.42857142857143 25.234375  21.42857142857143 24.375  L 21.42857142857143 18.125000000000004  C 21.42857142857143 17.94270833333333  21.478794642857142 17.792968749999996  21.57924107142857 17.675781249999996  C 21.6796875 17.558593749999996  21.808035714285715 17.499999999999996  21.96428571428571 17.499999999999996  L 23.03571428571429 17.499999999999996  C 23.19196428571429 17.499999999999996  23.3203125 17.558593749999996  23.42075892857143 17.675781249999996  Z M 29.681919642857142 0.3710937499999989  C 29.893973214285715 0.6184895833333293  30 0.9114583333333293  30 1.249999999999999  L 30 11.25  C 30 11.588541666666666  29.893973214285715 11.881510416666666  29.681919642857142 12.12890625  C 29.469866071428577 12.376302083333334  29.21875 12.499999999999998  28.92857142857143 12.499999999999998  C 28.638392857142858 12.499999999999998  28.387276785714285 12.376302083333334  28.17522321428571 12.12890625  L 25.228794642857142 8.691406249999998  L 14.313616071428571 21.425781249999996  C 14.202008928571429 21.55598958333333  14.073660714285715 21.62109375  13.928571428571429 21.62109375  C 13.783482142857144 21.62109375  13.655133928571429 21.55598958333333  13.543526785714285 21.425781249999996  L 11.635044642857144 19.199218749999996  C 11.523437500000002 19.069010416666668  11.467633928571429 18.919270833333336  11.467633928571429 18.75  C 11.467633928571429 18.580729166666664  11.523437500000002 18.430989583333332  11.635044642857144 18.300781250000004  L 22.55022321428571 5.56640625  L 19.603794642857142 2.128906249999999  C 19.391741071428577 1.8815104166666652  19.28571428571429 1.5885416666666652  19.28571428571429 1.249999999999999  C 19.28571428571429 0.9114583333333293  19.391741071428577 0.6184895833333293  19.603794642857142 0.3710937499999989  C 19.815848214285715 0.12369791666666852  20.066964285714285 0  20.357142857142858 0  L 28.92857142857143 0  C 29.21875 0  29.469866071428577 0.12369791666666852  29.681919642857142 0.3710937499999989  Z " fill-rule="nonzero" fill="#fbfbfb" stroke="none" transform="matrix(1 0 0 1 1584 60 )" />
  </g>
</svg>