<?xml version="1.0" encoding="utf-8"?>
<svg version="1.1" xmlns:xlink="http://www.w3.org/1999/xlink" width="22px" height="22px" xmlns="http://www.w3.org/2000/svg">
  <g transform="matrix(1 0 0 1 -1225 -64 )">
    <path d="M 13.4921875 13.4921875  C 14.651241987179489 12.333133012820511  15.23076923076923 10.938301282051281  15.23076923076923 9.307692307692308  C 15.23076923076923 7.677083333333332  14.651241987179489 6.282251602564101  13.4921875 5.123197115384615  C 12.333133012820515 3.964142628205127  10.938301282051283 3.384615384615385  9.307692307692308 3.384615384615385  C 7.677083333333334 3.384615384615385  6.282251602564104 3.964142628205127  5.123197115384615 5.123197115384615  C 3.9641426282051286 6.282251602564101  3.384615384615385 7.677083333333332  3.384615384615385 9.307692307692308  C 3.384615384615385 10.938301282051281  3.9641426282051286 12.333133012820511  5.123197115384615 13.4921875  C 6.282251602564104 14.651241987179484  7.677083333333334 15.23076923076923  9.307692307692308 15.23076923076923  C 10.938301282051283 15.23076923076923  12.333133012820515 14.651241987179484  13.4921875 13.4921875  Z M 21.51081730769231 19.11778846153846  C 21.836939102564102 19.44391025641026  22 19.840544871794872  22 20.30769230769231  C 22 20.766025641025642  21.832532051282055 21.16266025641026  21.497596153846153 21.497596153846153  C 21.16266025641026 21.83253205128205  20.766025641025642 22  20.30769230769231 22  C 19.83173076923077 22  19.435096153846153 21.83253205128205  19.11778846153846 21.497596153846153  L 14.582932692307692 16.97596153846154  C 13.005208333333334 18.06891025641026  11.246794871794874 18.615384615384617  9.307692307692308 18.615384615384617  C 8.047275641025642 18.615384615384617  6.841947115384615 18.37079326923077  5.69170673076923 17.88161057692308  C 4.541466346153846 17.392427884615383  3.5498798076923075 16.73137019230769  2.7169471153846154 15.8984375  C 1.8840144230769231 15.065504807692308  1.222956730769231 14.07391826923077  0.7337740384615384 12.923677884615385  C 0.24459134615384617 11.7734375  0 10.568108974358973  0 9.307692307692308  C 0 8.047275641025639  0.24459134615384617 6.841947115384615  0.7337740384615384 5.69170673076923  C 1.222956730769231 4.541466346153846  1.8840144230769231 3.549879807692309  2.7169471153846154 2.716947115384615  C 3.5498798076923075 1.884014423076924  4.541466346153846 1.2229567307692304  5.69170673076923 0.7337740384615392  C 6.841947115384615 0.2445913461538456  8.047275641025642 0  9.307692307692308 0  C 10.568108974358974 0  11.7734375 0.2445913461538456  12.923677884615385 0.7337740384615392  C 14.07391826923077 1.2229567307692304  15.065504807692308 1.884014423076924  15.8984375 2.716947115384615  C 16.73137019230769 3.549879807692309  17.392427884615383 4.541466346153846  17.881610576923077 5.69170673076923  C 18.37079326923077 6.841947115384615  18.615384615384617 8.047275641025639  18.615384615384617 9.307692307692308  C 18.615384615384617 11.24679487179487  18.06891025641026 13.005208333333332  16.97596153846154 14.582932692307692  L 21.51081730769231 19.11778846153846  Z " fill-rule="nonzero" fill="#000000" stroke="none" transform="matrix(1 0 0 1 1225 64 )" />
  </g>
</svg>