<?xml version="1.0" encoding="utf-8"?>
<svg version="1.1" xmlns:xlink="http://www.w3.org/1999/xlink" width="30px" height="30px" xmlns="http://www.w3.org/2000/svg">
  <g transform="matrix(1 0 0 1 -1737 -60 )">
    <path d="M 10.853365384615385 25.355113636363637  C 11.310096153846155 25.89488636363636  11.538461538461538 26.534090909090907  11.538461538461538 27.272727272727273  C 11.538461538461538 28.01136363636364  11.310096153846155 28.650568181818183  10.853365384615385 29.19034090909091  C 10.396634615384617 29.730113636363637  9.855769230769232 30  9.230769230769232 30  C 8.605769230769232 30  8.064903846153847 29.730113636363637  7.608173076923077 29.19034090909091  C 7.1514423076923075 28.650568181818183  6.923076923076923 28.01136363636364  6.923076923076923 27.272727272727273  C 6.923076923076923 26.534090909090907  7.1514423076923075 25.89488636363636  7.608173076923077 25.355113636363637  C 8.064903846153847 24.81534090909091  8.605769230769232 24.545454545454543  9.230769230769232 24.545454545454543  C 9.855769230769232 24.545454545454543  10.396634615384617 24.81534090909091  10.853365384615385 25.355113636363637  Z M 27.007211538461537 25.355113636363637  C 27.463942307692307 25.89488636363636  27.692307692307693 26.534090909090907  27.692307692307693 27.272727272727273  C 27.692307692307693 28.01136363636364  27.463942307692307 28.650568181818183  27.007211538461537 29.19034090909091  C 26.55048076923077 29.730113636363637  26.009615384615387 30  25.384615384615383 30  C 24.759615384615387 30  24.218750000000004 29.730113636363637  23.76201923076923 29.19034090909091  C 23.305288461538463 28.650568181818183  23.076923076923077 28.01136363636364  23.076923076923077 27.272727272727273  C 23.076923076923077 26.534090909090907  23.305288461538463 25.89488636363636  23.76201923076923 25.355113636363637  C 24.218750000000004 24.81534090909091  24.759615384615387 24.545454545454543  25.384615384615383 24.545454545454543  C 26.009615384615387 24.545454545454543  26.55048076923077 24.81534090909091  27.007211538461537 25.355113636363637  Z M 29.657451923076923 3.1321022727272716  C 29.88581730769231 3.401988636363633  30 3.7215909090909047  30 4.090909090909091  L 30 15  C 30 15.34090909090909  29.900841346153847 15.642755681818183  29.702524038461537 15.905539772727275  C 29.50420673076923 16.16832386363636  29.260817307692307 16.321022727272727  28.97235576923077 16.363636363636363  L 10.150240384615385 18.96306818181818  C 10.306490384615385 19.81534090909091  10.384615384615385 20.312499999999996  10.384615384615385 20.454545454545457  C 10.384615384615385 20.681818181818176  10.240384615384615 21.136363636363637  9.951923076923077 21.81818181818182  L 26.538461538461537 21.81818181818182  C 26.85096153846154 21.81818181818182  27.121394230769234 21.953124999999996  27.349759615384617 22.223011363636363  C 27.578124999999996 22.492897727272727  27.692307692307693 22.812500000000004  27.692307692307693 23.18181818181818  C 27.692307692307693 23.55113636363636  27.578124999999996 23.870738636363637  27.349759615384617 24.140625  C 27.121394230769234 24.410511363636363  26.85096153846154 24.545454545454543  26.538461538461537 24  L 8.076923076923077 24  C 7.7644230769230775 24.545454545454543  7.493990384615385 24.410511363636363  7.265625 24.140625  C 7.037259615384615 23.870738636363637  6.923076923076923 23.55113636363636  6.923076923076923 23.18181818181818  C 6.923076923076923 23.025568181818183  6.971153846153846 22.801846590909093  7.0673076923076925 22.51065340909091  C 7.163461538461539 22.219460227272727  7.259615384615385 21.963778409090907  7.355769230769231 21.743607954545457  C 7.4519230769230775 21.523437499999996  7.5811298076923075 21.239346590909093  7.743389423076923 20.891335227272727  C 7.905649038461539 20.54332386363636  7.9987980769230775 20.333806818181817  8.022836538461538 20.26278409090909  L 4.831730769230769 2.7272727272727284  L 1.153846153846154 2.7272727272727284  C 0.841346153846154 2.7272727272727284  0.5709134615384616 2.5923295454545423  0.3425480769230769 2.322443181818181  C 0.1141826923076923 2.0525568181818166  0 1.7329545454545447  0 1.3636363636363624  C 0 0.9943181818181801  0.1141826923076923 0.674715909090905  0.3425480769230769 0.40482954545454697  C 0.5709134615384616 0.134943181818179  0.841346153846154 0  1.153846153846154 0  L 5.769230769230769 0  C 5.961538461538462 0  6.1328125 0.04616477272727071  6.283052884615384 0.1384943181818188  C 6.43329326923077 0.23082386363636354  6.55048076923077 0.3409090909090906  6.634615384615384 0.46875  C 6.71875 0.5965909090909094  6.796875 0.7705965909090862  6.868990384615384 0.990767045454547  C 6.94110576923077 1.2109374999999978  6.989182692307693 1.3955965909090906  7.013221153846154 1.5447443181818188  C 7.037259615384616 1.693892045454547  7.0703125 1.9034090909090884  7.1123798076923075 2.1732954545454533  C 7.154447115384616 2.4431818181818143  7.181490384615385 2.6278409090909074  7.193509615384616 3  L 28.846153846153847 3  C 29.15865384615385 2.7272727272727284  29.42908653846154 2.8622159090909074  29.657451923076923 3.1321022727272716  Z " fill-rule="nonzero" fill="#ffffff" stroke="none" transform="matrix(1 0 0 1 1737 60 )" />
  </g>
</svg>